<mxfile host="app.diagrams.net" agent="Mozilla/5.0 (Windows NT 10.0; Win64; x64) AppleWebKit/537.36 (KHTML, like Gecko) Chrome/135.0.0.0 Safari/537.36 Edg/135.0.0.0" version="26.2.12">
  <diagram name="Page-1" id="LgMCMshlLutd3J5TtqUg">
    <mxGraphModel dx="1230" dy="767" grid="1" gridSize="10" guides="1" tooltips="1" connect="1" arrows="1" fold="1" page="1" pageScale="1" pageWidth="1654" pageHeight="2336" math="0" shadow="0">
      <root>
        <mxCell id="0" />
        <mxCell id="1" parent="0" />
        <mxCell id="QLflv1tglq8npzTTlO3V-1" value="Thêm hàng" style="shape=umlFrame;whiteSpace=wrap;html=1;pointerEvents=0;width=80;height=30;" vertex="1" parent="1">
          <mxGeometry x="40" y="220" width="1090" height="750" as="geometry" />
        </mxCell>
        <mxCell id="QLflv1tglq8npzTTlO3V-2" value="" style="shape=umlLifeline;perimeter=lifelinePerimeter;whiteSpace=wrap;html=1;container=1;dropTarget=0;collapsible=0;recursiveResize=0;outlineConnect=0;portConstraint=eastwest;newEdgeStyle={&quot;curved&quot;:0,&quot;rounded&quot;:0};participant=umlActor;" vertex="1" parent="1">
          <mxGeometry x="160" y="310" width="20" height="830" as="geometry" />
        </mxCell>
        <mxCell id="QLflv1tglq8npzTTlO3V-3" value="NVQL kho" style="text;html=1;align=center;verticalAlign=middle;resizable=0;points=[];autosize=1;strokeColor=none;fillColor=none;" vertex="1" parent="1">
          <mxGeometry x="130" y="270" width="80" height="30" as="geometry" />
        </mxCell>
        <mxCell id="QLflv1tglq8npzTTlO3V-4" value="Giao&amp;nbsp; diện thêm hàng" style="shape=umlLifeline;perimeter=lifelinePerimeter;whiteSpace=wrap;html=1;container=1;dropTarget=0;collapsible=0;recursiveResize=0;outlineConnect=0;portConstraint=eastwest;newEdgeStyle={&quot;curved&quot;:0,&quot;rounded&quot;:0};" vertex="1" parent="1">
          <mxGeometry x="370" y="315" width="110" height="825" as="geometry" />
        </mxCell>
        <mxCell id="QLflv1tglq8npzTTlO3V-8" value="" style="html=1;points=[[0,0,0,0,5],[0,1,0,0,-5],[1,0,0,0,5],[1,1,0,0,-5]];perimeter=orthogonalPerimeter;outlineConnect=0;targetShapes=umlLifeline;portConstraint=eastwest;newEdgeStyle={&quot;curved&quot;:0,&quot;rounded&quot;:0};" vertex="1" parent="QLflv1tglq8npzTTlO3V-4">
          <mxGeometry x="50" y="75" width="10" height="85" as="geometry" />
        </mxCell>
        <mxCell id="QLflv1tglq8npzTTlO3V-19" value="" style="html=1;points=[[0,0,0,0,5],[0,1,0,0,-5],[1,0,0,0,5],[1,1,0,0,-5]];perimeter=orthogonalPerimeter;outlineConnect=0;targetShapes=umlLifeline;portConstraint=eastwest;newEdgeStyle={&quot;curved&quot;:0,&quot;rounded&quot;:0};" vertex="1" parent="QLflv1tglq8npzTTlO3V-4">
          <mxGeometry x="50" y="185" width="10" height="155" as="geometry" />
        </mxCell>
        <mxCell id="QLflv1tglq8npzTTlO3V-45" value="" style="html=1;points=[[0,0,0,0,5],[0,1,0,0,-5],[1,0,0,0,5],[1,1,0,0,-5]];perimeter=orthogonalPerimeter;outlineConnect=0;targetShapes=umlLifeline;portConstraint=eastwest;newEdgeStyle={&quot;curved&quot;:0,&quot;rounded&quot;:0};" vertex="1" parent="QLflv1tglq8npzTTlO3V-4">
          <mxGeometry x="50" y="545" width="10" height="80" as="geometry" />
        </mxCell>
        <mxCell id="QLflv1tglq8npzTTlO3V-5" value="Ngành&amp;nbsp; hàng" style="shape=umlLifeline;perimeter=lifelinePerimeter;whiteSpace=wrap;html=1;container=1;dropTarget=0;collapsible=0;recursiveResize=0;outlineConnect=0;portConstraint=eastwest;newEdgeStyle={&quot;curved&quot;:0,&quot;rounded&quot;:0};" vertex="1" parent="1">
          <mxGeometry x="620" y="315" width="100" height="835" as="geometry" />
        </mxCell>
        <mxCell id="QLflv1tglq8npzTTlO3V-13" value="" style="html=1;points=[[0,0,0,0,5],[0,1,0,0,-5],[1,0,0,0,5],[1,1,0,0,-5]];perimeter=orthogonalPerimeter;outlineConnect=0;targetShapes=umlLifeline;portConstraint=eastwest;newEdgeStyle={&quot;curved&quot;:0,&quot;rounded&quot;:0};" vertex="1" parent="QLflv1tglq8npzTTlO3V-5">
          <mxGeometry x="45" y="90" width="10" height="70" as="geometry" />
        </mxCell>
        <mxCell id="QLflv1tglq8npzTTlO3V-9" value="1:yêu cầu thêm hàng" style="html=1;verticalAlign=bottom;endArrow=block;curved=0;rounded=0;entryX=0.724;entryY=0.236;entryDx=0;entryDy=0;entryPerimeter=0;" edge="1" parent="1" source="QLflv1tglq8npzTTlO3V-2" target="QLflv1tglq8npzTTlO3V-8">
          <mxGeometry x="0.0007" width="80" relative="1" as="geometry">
            <mxPoint x="290" y="470" as="sourcePoint" />
            <mxPoint x="370" y="470" as="targetPoint" />
            <mxPoint as="offset" />
          </mxGeometry>
        </mxCell>
        <mxCell id="QLflv1tglq8npzTTlO3V-14" value="Nhóm hàng" style="shape=umlLifeline;perimeter=lifelinePerimeter;whiteSpace=wrap;html=1;container=1;dropTarget=0;collapsible=0;recursiveResize=0;outlineConnect=0;portConstraint=eastwest;newEdgeStyle={&quot;curved&quot;:0,&quot;rounded&quot;:0};" vertex="1" parent="1">
          <mxGeometry x="820" y="315" width="100" height="845" as="geometry" />
        </mxCell>
        <mxCell id="QLflv1tglq8npzTTlO3V-21" value="" style="html=1;points=[[0,0,0,0,5],[0,1,0,0,-5],[1,0,0,0,5],[1,1,0,0,-5]];perimeter=orthogonalPerimeter;outlineConnect=0;targetShapes=umlLifeline;portConstraint=eastwest;newEdgeStyle={&quot;curved&quot;:0,&quot;rounded&quot;:0};" vertex="1" parent="QLflv1tglq8npzTTlO3V-14">
          <mxGeometry x="45" y="195" width="10" height="65" as="geometry" />
        </mxCell>
        <mxCell id="QLflv1tglq8npzTTlO3V-15" value="Hàng" style="shape=umlLifeline;perimeter=lifelinePerimeter;whiteSpace=wrap;html=1;container=1;dropTarget=0;collapsible=0;recursiveResize=0;outlineConnect=0;portConstraint=eastwest;newEdgeStyle={&quot;curved&quot;:0,&quot;rounded&quot;:0};" vertex="1" parent="1">
          <mxGeometry x="990" y="315" width="100" height="815" as="geometry" />
        </mxCell>
        <mxCell id="QLflv1tglq8npzTTlO3V-27" value="" style="html=1;points=[[0,0,0,0,5],[0,1,0,0,-5],[1,0,0,0,5],[1,1,0,0,-5]];perimeter=orthogonalPerimeter;outlineConnect=0;targetShapes=umlLifeline;portConstraint=eastwest;newEdgeStyle={&quot;curved&quot;:0,&quot;rounded&quot;:0};" vertex="1" parent="QLflv1tglq8npzTTlO3V-15">
          <mxGeometry x="45" y="260" width="10" height="80" as="geometry" />
        </mxCell>
        <mxCell id="QLflv1tglq8npzTTlO3V-44" value="" style="html=1;points=[[0,0,0,0,5],[0,1,0,0,-5],[1,0,0,0,5],[1,1,0,0,-5]];perimeter=orthogonalPerimeter;outlineConnect=0;targetShapes=umlLifeline;portConstraint=eastwest;newEdgeStyle={&quot;curved&quot;:0,&quot;rounded&quot;:0};" vertex="1" parent="QLflv1tglq8npzTTlO3V-15">
          <mxGeometry x="46" y="545" width="10" height="80" as="geometry" />
        </mxCell>
        <mxCell id="QLflv1tglq8npzTTlO3V-17" value="2: lấy danh sách ngành hàng" style="html=1;verticalAlign=bottom;endArrow=block;curved=0;rounded=0;entryX=0.492;entryY=0.127;entryDx=0;entryDy=0;entryPerimeter=0;" edge="1" parent="1" source="QLflv1tglq8npzTTlO3V-8" target="QLflv1tglq8npzTTlO3V-5">
          <mxGeometry width="80" relative="1" as="geometry">
            <mxPoint x="530" y="480" as="sourcePoint" />
            <mxPoint x="610" y="480" as="targetPoint" />
          </mxGeometry>
        </mxCell>
        <mxCell id="QLflv1tglq8npzTTlO3V-18" value="3: trả về danh sách ngành hàng" style="html=1;verticalAlign=bottom;endArrow=open;dashed=1;endSize=8;curved=0;rounded=0;entryX=0.52;entryY=0.168;entryDx=0;entryDy=0;entryPerimeter=0;" edge="1" parent="1" source="QLflv1tglq8npzTTlO3V-5" target="QLflv1tglq8npzTTlO3V-4">
          <mxGeometry relative="1" as="geometry">
            <mxPoint x="580" y="520" as="sourcePoint" />
            <mxPoint x="500" y="520" as="targetPoint" />
          </mxGeometry>
        </mxCell>
        <mxCell id="QLflv1tglq8npzTTlO3V-22" value="5: lấy danh sách nhóm hàng" style="html=1;verticalAlign=bottom;endArrow=block;curved=0;rounded=0;entryX=0.527;entryY=0.254;entryDx=0;entryDy=0;entryPerimeter=0;" edge="1" parent="1" source="QLflv1tglq8npzTTlO3V-4" target="QLflv1tglq8npzTTlO3V-14">
          <mxGeometry width="80" relative="1" as="geometry">
            <mxPoint x="590" y="570" as="sourcePoint" />
            <mxPoint x="670" y="570" as="targetPoint" />
          </mxGeometry>
        </mxCell>
        <mxCell id="QLflv1tglq8npzTTlO3V-24" value="4: chọn ngành hàng" style="html=1;verticalAlign=bottom;endArrow=block;curved=0;rounded=0;entryX=0.584;entryY=0.119;entryDx=0;entryDy=0;entryPerimeter=0;" edge="1" parent="1" source="QLflv1tglq8npzTTlO3V-2" target="QLflv1tglq8npzTTlO3V-19">
          <mxGeometry x="0.0051" width="80" relative="1" as="geometry">
            <mxPoint x="520" y="650" as="sourcePoint" />
            <mxPoint x="774" y="650" as="targetPoint" />
            <mxPoint as="offset" />
          </mxGeometry>
        </mxCell>
        <mxCell id="QLflv1tglq8npzTTlO3V-25" value="6:trả về danh sách nhóm hàng" style="html=1;verticalAlign=bottom;endArrow=open;dashed=1;endSize=8;curved=0;rounded=0;entryX=0.374;entryY=0.428;entryDx=0;entryDy=0;entryPerimeter=0;" edge="1" parent="1" source="QLflv1tglq8npzTTlO3V-14" target="QLflv1tglq8npzTTlO3V-19">
          <mxGeometry relative="1" as="geometry">
            <mxPoint x="930" y="680" as="sourcePoint" />
            <mxPoint x="486" y="680" as="targetPoint" />
          </mxGeometry>
        </mxCell>
        <mxCell id="QLflv1tglq8npzTTlO3V-26" value="7; nhập thông tin mặt hàng (tên ,giá,số lượng...)" style="html=1;verticalAlign=bottom;endArrow=block;curved=0;rounded=0;entryX=0.164;entryY=0.654;entryDx=0;entryDy=0;entryPerimeter=0;" edge="1" parent="1" source="QLflv1tglq8npzTTlO3V-2" target="QLflv1tglq8npzTTlO3V-19">
          <mxGeometry width="80" relative="1" as="geometry">
            <mxPoint x="260" y="630" as="sourcePoint" />
            <mxPoint x="340" y="630" as="targetPoint" />
          </mxGeometry>
        </mxCell>
        <mxCell id="QLflv1tglq8npzTTlO3V-28" value="8:gọi hàm kiemTraHang()" style="html=1;verticalAlign=bottom;endArrow=block;curved=0;rounded=0;entryX=0.491;entryY=0.363;entryDx=0;entryDy=0;entryPerimeter=0;" edge="1" parent="1" source="QLflv1tglq8npzTTlO3V-19" target="QLflv1tglq8npzTTlO3V-15">
          <mxGeometry width="80" relative="1" as="geometry">
            <mxPoint x="700" y="660" as="sourcePoint" />
            <mxPoint x="780" y="660" as="targetPoint" />
          </mxGeometry>
        </mxCell>
        <mxCell id="QLflv1tglq8npzTTlO3V-29" value="9: kết quả kiểm tra" style="html=1;verticalAlign=bottom;endArrow=open;dashed=1;endSize=8;curved=0;rounded=0;entryX=0.654;entryY=0.896;entryDx=0;entryDy=0;entryPerimeter=0;" edge="1" parent="1" source="QLflv1tglq8npzTTlO3V-15" target="QLflv1tglq8npzTTlO3V-19">
          <mxGeometry relative="1" as="geometry">
            <mxPoint x="780" y="690" as="sourcePoint" />
            <mxPoint x="700" y="690" as="targetPoint" />
          </mxGeometry>
        </mxCell>
        <mxCell id="QLflv1tglq8npzTTlO3V-30" value="frame" style="shape=umlFrame;whiteSpace=wrap;html=1;pointerEvents=0;" vertex="1" parent="1">
          <mxGeometry x="90" y="660" width="1000" height="190" as="geometry" />
        </mxCell>
        <mxCell id="QLflv1tglq8npzTTlO3V-31" value="" style="html=1;points=[[0,0,0,0,5],[0,1,0,0,-5],[1,0,0,0,5],[1,1,0,0,-5]];perimeter=orthogonalPerimeter;outlineConnect=0;targetShapes=umlLifeline;portConstraint=eastwest;newEdgeStyle={&quot;curved&quot;:0,&quot;rounded&quot;:0};" vertex="1" parent="1">
          <mxGeometry x="421" y="683" width="10" height="47" as="geometry" />
        </mxCell>
        <mxCell id="QLflv1tglq8npzTTlO3V-32" value="" style="html=1;points=[[0,0,0,0,5],[0,1,0,0,-5],[1,0,0,0,5],[1,1,0,0,-5]];perimeter=orthogonalPerimeter;outlineConnect=0;targetShapes=umlLifeline;portConstraint=eastwest;newEdgeStyle={&quot;curved&quot;:0,&quot;rounded&quot;:0};" vertex="1" parent="1">
          <mxGeometry x="1035" y="683" width="10" height="37" as="geometry" />
        </mxCell>
        <mxCell id="QLflv1tglq8npzTTlO3V-33" value="10: thêm mặt hàng mới vào hệ thống" style="html=1;verticalAlign=bottom;endArrow=block;curved=0;rounded=0;entryX=0.477;entryY=0.468;entryDx=0;entryDy=0;entryPerimeter=0;" edge="1" parent="1" source="QLflv1tglq8npzTTlO3V-31" target="QLflv1tglq8npzTTlO3V-15">
          <mxGeometry width="80" relative="1" as="geometry">
            <mxPoint x="630" y="710" as="sourcePoint" />
            <mxPoint x="710" y="710" as="targetPoint" />
          </mxGeometry>
        </mxCell>
        <mxCell id="QLflv1tglq8npzTTlO3V-37" value="" style="line;strokeWidth=2;fillColor=none;align=left;verticalAlign=middle;spacingTop=-1;spacingLeft=3;spacingRight=3;rotatable=0;labelPosition=right;points=[];portConstraint=eastwest;strokeColor=inherit;dashed=1;" vertex="1" parent="1">
          <mxGeometry x="85" y="740" width="1000" height="8" as="geometry" />
        </mxCell>
        <mxCell id="QLflv1tglq8npzTTlO3V-40" value="" style="html=1;points=[[0,0,0,0,5],[0,1,0,0,-5],[1,0,0,0,5],[1,1,0,0,-5]];perimeter=orthogonalPerimeter;outlineConnect=0;targetShapes=umlLifeline;portConstraint=eastwest;newEdgeStyle={&quot;curved&quot;:0,&quot;rounded&quot;:0};" vertex="1" parent="1">
          <mxGeometry x="422" y="760" width="10" height="50" as="geometry" />
        </mxCell>
        <mxCell id="QLflv1tglq8npzTTlO3V-41" value="" style="html=1;points=[[0,0,0,0,5],[0,1,0,0,-5],[1,0,0,0,5],[1,1,0,0,-5]];perimeter=orthogonalPerimeter;outlineConnect=0;targetShapes=umlLifeline;portConstraint=eastwest;newEdgeStyle={&quot;curved&quot;:0,&quot;rounded&quot;:0};" vertex="1" parent="1">
          <mxGeometry x="1035" y="765" width="10" height="40" as="geometry" />
        </mxCell>
        <mxCell id="QLflv1tglq8npzTTlO3V-42" value="11:&amp;nbsp; Gọi hàm capNhatSL()&amp;nbsp; (nếu hàng hóa có sẵn)" style="html=1;verticalAlign=bottom;endArrow=block;curved=0;rounded=0;" edge="1" parent="1" source="QLflv1tglq8npzTTlO3V-40" target="QLflv1tglq8npzTTlO3V-41">
          <mxGeometry width="80" relative="1" as="geometry">
            <mxPoint x="570" y="800" as="sourcePoint" />
            <mxPoint x="650" y="800" as="targetPoint" />
          </mxGeometry>
        </mxCell>
        <mxCell id="QLflv1tglq8npzTTlO3V-43" value="12:xác nhận xử lý xong" style="html=1;verticalAlign=bottom;endArrow=open;dashed=1;endSize=8;curved=0;rounded=0;entryX=0.304;entryY=0.27;entryDx=0;entryDy=0;entryPerimeter=0;" edge="1" parent="1" source="QLflv1tglq8npzTTlO3V-15" target="QLflv1tglq8npzTTlO3V-45">
          <mxGeometry relative="1" as="geometry">
            <mxPoint x="630" y="890" as="sourcePoint" />
            <mxPoint x="550" y="890" as="targetPoint" />
          </mxGeometry>
        </mxCell>
        <mxCell id="QLflv1tglq8npzTTlO3V-46" value="13:Thông báo&amp;nbsp; đã thêm hoặc update" style="html=1;verticalAlign=bottom;endArrow=open;dashed=1;endSize=8;curved=0;rounded=0;entryX=0.425;entryY=0.739;entryDx=0;entryDy=0;entryPerimeter=0;" edge="1" parent="1" source="QLflv1tglq8npzTTlO3V-4" target="QLflv1tglq8npzTTlO3V-2">
          <mxGeometry relative="1" as="geometry">
            <mxPoint x="340" y="920" as="sourcePoint" />
            <mxPoint x="260" y="920" as="targetPoint" />
          </mxGeometry>
        </mxCell>
      </root>
    </mxGraphModel>
  </diagram>
</mxfile>
